<svg xmlns="http://www.w3.org/2000/svg" xmlns:xlink="http://www.w3.org/1999/xlink" width="512" zoomAndPan="magnify" viewBox="0 0 384 383.999986" height="512" preserveAspectRatio="xMidYMid meet" version="1.0"><defs><clipPath id="9604b48946"><path d="M 40 43 L 345 43 L 345 347.613281 L 40 347.613281 Z M 40 43 " clip-rule="nonzero"/></clipPath></defs><g clip-path="url(#9604b48946)"><path fill="#0072ff" d="M 82.433594 244.585938 L 54.703125 235.316406 C 53.253906 234.851562 51.878906 234.222656 50.578125 233.425781 C 49.28125 232.632812 48.09375 231.695312 47.023438 230.613281 C 45.949219 229.53125 45.023438 228.339844 44.238281 227.035156 C 43.453125 225.730469 42.835938 224.351562 42.386719 222.898438 C 35.4375 199.582031 55.460938 183.691406 73.425781 189.710938 L 96.8125 197.574219 C 97.292969 197.734375 97.785156 197.847656 98.289062 197.914062 C 98.792969 197.976562 99.296875 197.992188 99.804688 197.957031 C 100.308594 197.921875 100.808594 197.835938 101.296875 197.703125 C 101.785156 197.570312 102.257812 197.386719 102.710938 197.160156 C 103.164062 196.933594 103.59375 196.667969 103.992188 196.355469 C 104.394531 196.042969 104.757812 195.695312 105.089844 195.3125 C 105.421875 194.929688 105.714844 194.519531 105.964844 194.078125 C 106.214844 193.636719 106.421875 193.175781 106.582031 192.695312 L 122.152344 146.441406 C 122.316406 145.960938 122.429688 145.46875 122.492188 144.964844 C 122.558594 144.460938 122.570312 143.957031 122.535156 143.453125 C 122.5 142.945312 122.414062 142.449219 122.28125 141.960938 C 122.148438 141.472656 121.96875 141 121.742188 140.546875 C 121.515625 140.09375 121.246094 139.667969 120.933594 139.265625 C 120.621094 138.867188 120.273438 138.5 119.890625 138.167969 C 119.507812 137.835938 119.097656 137.546875 118.65625 137.292969 C 118.214844 137.042969 117.753906 136.839844 117.269531 136.679688 L 93.882812 128.871094 C 76.027344 122.90625 69.570312 98.398438 88.78125 83.917969 C 90.058594 83 91.429688 82.246094 92.890625 81.65625 C 94.351562 81.070312 95.863281 80.664062 97.421875 80.441406 C 98.980469 80.21875 100.542969 80.1875 102.109375 80.34375 C 103.679688 80.503906 105.203125 80.84375 106.6875 81.371094 L 134.09375 90.480469 C 134.496094 90.617188 134.90625 90.710938 135.328125 90.765625 C 135.75 90.820312 136.171875 90.835938 136.597656 90.804688 C 137.019531 90.777344 137.4375 90.707031 137.847656 90.597656 C 138.257812 90.484375 138.652344 90.335938 139.035156 90.148438 C 139.414062 89.957031 139.773438 89.734375 140.109375 89.472656 C 140.445312 89.214844 140.753906 88.925781 141.03125 88.605469 C 141.3125 88.285156 141.558594 87.941406 141.769531 87.570312 C 141.980469 87.203125 142.152344 86.816406 142.285156 86.414062 L 150.859375 60.765625 C 156.828125 42.925781 181.355469 36.472656 195.847656 55.667969 C 196.765625 56.945312 197.519531 58.3125 198.109375 59.773438 C 198.699219 61.234375 199.101562 62.742188 199.324219 64.300781 C 199.546875 65.859375 199.578125 67.421875 199.421875 68.988281 C 199.265625 70.554688 198.921875 72.078125 198.394531 73.5625 L 189.28125 100.675781 C 189.117188 101.15625 189.003906 101.648438 188.941406 102.148438 C 188.878906 102.652344 188.863281 103.15625 188.898438 103.664062 C 188.933594 104.167969 189.019531 104.667969 189.152344 105.15625 C 189.285156 105.644531 189.464844 106.117188 189.691406 106.570312 C 189.917969 107.023438 190.1875 107.449219 190.5 107.847656 C 190.8125 108.25 191.160156 108.617188 191.542969 108.949219 C 191.925781 109.28125 192.339844 109.570312 192.78125 109.820312 C 193.21875 110.070312 193.683594 110.277344 194.164062 110.433594 L 243.003906 126.703125 C 243.484375 126.863281 243.976562 126.976562 244.476562 127.042969 C 244.980469 127.105469 245.484375 127.121094 245.992188 127.085938 C 246.5 127.050781 246.996094 126.964844 247.484375 126.832031 C 247.976562 126.695312 248.445312 126.515625 248.898438 126.289062 C 249.355469 126.0625 249.78125 125.792969 250.183594 125.484375 C 250.582031 125.171875 250.949219 124.824219 251.28125 124.441406 C 251.613281 124.058594 251.902344 123.648438 252.15625 123.207031 C 252.40625 122.765625 252.609375 122.304688 252.769531 121.824219 L 260.964844 97.367188 C 266.933594 79.527344 291.460938 73.074219 305.949219 92.269531 C 306.871094 93.546875 307.625 94.914062 308.214844 96.375 C 308.800781 97.835938 309.207031 99.34375 309.429688 100.902344 C 309.652344 102.460938 309.683594 104.023438 309.527344 105.589844 C 309.367188 107.15625 309.027344 108.679688 308.5 110.164062 L 298.949219 138.632812 C 298.800781 139.039062 298.691406 139.453125 298.625 139.878906 C 298.5625 140.308594 298.539062 140.738281 298.558594 141.167969 C 298.578125 141.601562 298.640625 142.027344 298.75 142.445312 C 298.855469 142.863281 299 143.265625 299.1875 143.65625 C 299.375 144.046875 299.601562 144.414062 299.859375 144.757812 C 300.121094 145.101562 300.414062 145.417969 300.738281 145.703125 C 301.0625 145.988281 301.414062 146.238281 301.789062 146.453125 C 302.164062 146.667969 302.554688 146.847656 302.964844 146.984375 L 330.53125 156.199219 C 331.980469 156.753906 333.355469 157.453125 334.65625 158.300781 C 335.957031 159.148438 337.152344 160.125 338.242188 161.226562 C 339.332031 162.332031 340.292969 163.539062 341.125 164.847656 C 341.957031 166.160156 342.640625 167.542969 343.175781 168.996094 C 348.601562 188.464844 335.414062 202.671875 320.4375 203.050781 C 317.578125 203.121094 314.792969 202.707031 312.082031 201.804688 L 288.691406 193.941406 C 288.210938 193.78125 287.71875 193.667969 287.214844 193.601562 C 286.714844 193.539062 286.207031 193.523438 285.703125 193.558594 C 285.195312 193.59375 284.699219 193.679688 284.210938 193.8125 C 283.71875 193.945312 283.25 194.128906 282.792969 194.355469 C 282.339844 194.582031 281.914062 194.847656 281.511719 195.160156 C 281.113281 195.472656 280.746094 195.820312 280.414062 196.203125 C 280.082031 196.585938 279.789062 196.996094 279.539062 197.4375 C 279.289062 197.878906 279.085938 198.339844 278.925781 198.820312 L 263.242188 245.128906 C 263.082031 245.609375 262.96875 246.101562 262.902344 246.605469 C 262.839844 247.109375 262.824219 247.613281 262.859375 248.117188 C 262.894531 248.625 262.980469 249.121094 263.113281 249.609375 C 263.25 250.097656 263.429688 250.570312 263.65625 251.023438 C 263.882812 251.476562 264.152344 251.902344 264.464844 252.304688 C 264.773438 252.703125 265.121094 253.070312 265.503906 253.402344 C 265.890625 253.734375 266.300781 254.023438 266.742188 254.277344 C 267.183594 254.527344 267.644531 254.730469 268.125 254.890625 L 294.5 263.730469 C 295.949219 264.28125 297.324219 264.980469 298.625 265.828125 C 299.925781 266.675781 301.121094 267.652344 302.210938 268.757812 C 303.300781 269.859375 304.261719 271.066406 305.09375 272.375 C 305.925781 273.6875 306.609375 275.070312 307.144531 276.527344 C 312.570312 295.992188 299.382812 310.199219 284.40625 310.578125 C 281.511719 310.660156 278.6875 310.246094 275.941406 309.332031 L 251.359375 301.089844 C 250.957031 300.953125 250.542969 300.859375 250.121094 300.804688 C 249.703125 300.75 249.277344 300.734375 248.855469 300.765625 C 248.429688 300.792969 248.011719 300.863281 247.601562 300.972656 C 247.191406 301.082031 246.796875 301.234375 246.417969 301.421875 C 246.035156 301.613281 245.675781 301.835938 245.339844 302.09375 C 245.003906 302.355469 244.699219 302.644531 244.417969 302.964844 C 244.140625 303.285156 243.894531 303.628906 243.683594 304 C 243.472656 304.367188 243.300781 304.753906 243.164062 305.15625 L 234.589844 330.804688 C 234.195312 331.996094 233.707031 333.152344 233.132812 334.273438 C 232.558594 335.390625 231.902344 336.457031 231.164062 337.476562 C 230.425781 338.492188 229.613281 339.449219 228.730469 340.34375 C 227.84375 341.234375 226.894531 342.054688 225.882812 342.804688 C 224.871094 343.550781 223.808594 344.21875 222.695312 344.804688 C 221.582031 345.386719 220.429688 345.882812 219.242188 346.292969 C 218.050781 346.699219 216.835938 347.015625 215.597656 347.238281 C 214.359375 347.457031 213.113281 347.585938 211.855469 347.613281 C 209.679688 347.617188 207.539062 347.367188 205.425781 346.855469 C 203.3125 346.34375 201.292969 345.59375 199.359375 344.597656 C 197.429688 343.601562 195.644531 342.390625 194.003906 340.96875 C 192.363281 339.542969 190.914062 337.945312 189.660156 336.171875 C 188.710938 334.894531 187.929688 333.519531 187.316406 332.050781 C 186.707031 330.578125 186.28125 329.058594 186.046875 327.484375 C 185.808594 325.910156 185.765625 324.328125 185.917969 322.746094 C 186.070312 321.160156 186.414062 319.617188 186.945312 318.117188 L 196.117188 291.003906 C 196.277344 290.523438 196.390625 290.03125 196.457031 289.527344 C 196.519531 289.027344 196.535156 288.519531 196.5 288.015625 C 196.464844 287.511719 196.378906 287.011719 196.246094 286.523438 C 196.113281 286.035156 195.929688 285.5625 195.703125 285.109375 C 195.476562 284.65625 195.207031 284.230469 194.898438 283.828125 C 194.585938 283.429688 194.238281 283.0625 193.855469 282.730469 C 193.472656 282.398438 193.058594 282.109375 192.617188 281.859375 C 192.175781 281.605469 191.714844 281.402344 191.234375 281.242188 L 142.394531 264.976562 C 141.914062 264.816406 141.421875 264.703125 140.917969 264.636719 C 140.414062 264.574219 139.910156 264.558594 139.40625 264.59375 C 138.898438 264.628906 138.402344 264.714844 137.910156 264.847656 C 137.421875 264.980469 136.949219 265.160156 136.496094 265.386719 C 136.042969 265.613281 135.617188 265.882812 135.214844 266.195312 C 134.8125 266.507812 134.449219 266.851562 134.117188 267.238281 C 133.785156 267.621094 133.492188 268.03125 133.242188 268.472656 C 132.992188 268.914062 132.785156 269.375 132.628906 269.855469 L 124.433594 294.3125 C 124.035156 295.5 123.546875 296.652344 122.972656 297.765625 C 122.398438 298.878906 121.742188 299.941406 121.003906 300.957031 C 120.269531 301.96875 119.457031 302.921875 118.574219 303.8125 C 117.691406 304.703125 116.746094 305.519531 115.738281 306.261719 C 114.726562 307.007812 113.667969 307.671875 112.558594 308.253906 C 111.449219 308.839844 110.300781 309.332031 109.113281 309.742188 C 107.925781 310.148438 106.71875 310.464844 105.484375 310.683594 C 104.25 310.90625 103.003906 311.035156 101.75 311.066406 C 99.53125 311.050781 97.351562 310.761719 95.207031 310.199219 C 93.058594 309.636719 91.015625 308.824219 89.074219 307.753906 C 87.132812 306.683594 85.351562 305.390625 83.730469 303.878906 C 82.109375 302.363281 80.699219 300.675781 79.503906 298.8125 C 78.597656 297.550781 77.859375 296.203125 77.28125 294.765625 C 76.699219 293.328125 76.300781 291.84375 76.078125 290.3125 C 75.855469 288.777344 75.820312 287.238281 75.96875 285.699219 C 76.113281 284.15625 76.441406 282.652344 76.953125 281.1875 L 86.503906 252.722656 C 86.632812 252.320312 86.726562 251.910156 86.777344 251.492188 C 86.828125 251.074219 86.839844 250.652344 86.808594 250.234375 C 86.777344 249.8125 86.707031 249.398438 86.59375 248.992188 C 86.484375 248.585938 86.332031 248.191406 86.144531 247.816406 C 85.957031 247.4375 85.730469 247.082031 85.472656 246.75 C 85.214844 246.417969 84.925781 246.109375 84.609375 245.835938 C 84.289062 245.558594 83.949219 245.3125 83.582031 245.105469 C 83.214844 244.894531 82.832031 244.722656 82.433594 244.585938 Z M 160.140625 218.886719 L 204.582031 233.742188 C 205.210938 233.957031 205.855469 234.105469 206.511719 234.191406 C 207.171875 234.277344 207.832031 234.296875 208.496094 234.253906 C 209.15625 234.207031 209.808594 234.101562 210.449219 233.925781 C 211.089844 233.753906 211.707031 233.519531 212.304688 233.226562 C 212.898438 232.929688 213.457031 232.582031 213.984375 232.175781 C 214.511719 231.769531 214.992188 231.316406 215.425781 230.816406 C 215.863281 230.316406 216.246094 229.78125 216.578125 229.203125 C 216.90625 228.628906 217.179688 228.027344 217.390625 227.398438 L 231.390625 185.480469 C 231.601562 184.863281 231.75 184.226562 231.839844 183.578125 C 231.925781 182.929688 231.949219 182.277344 231.910156 181.625 C 231.871094 180.972656 231.769531 180.328125 231.605469 179.695312 C 231.441406 179.058594 231.214844 178.449219 230.933594 177.859375 C 230.648438 177.265625 230.308594 176.710938 229.917969 176.1875 C 229.523438 175.660156 229.085938 175.179688 228.597656 174.742188 C 228.113281 174.300781 227.585938 173.914062 227.027344 173.578125 C 226.464844 173.242188 225.875 172.960938 225.257812 172.738281 L 180.816406 157.828125 C 180.1875 157.613281 179.542969 157.464844 178.882812 157.378906 C 178.226562 157.292969 177.566406 157.273438 176.902344 157.316406 C 176.238281 157.363281 175.589844 157.46875 174.949219 157.644531 C 174.304688 157.816406 173.6875 158.050781 173.09375 158.34375 C 172.5 158.640625 171.9375 158.988281 171.414062 159.394531 C 170.886719 159.800781 170.40625 160.25 169.96875 160.75 C 169.535156 161.25 169.148438 161.789062 168.820312 162.363281 C 168.488281 162.941406 168.21875 163.542969 168.007812 164.171875 L 154.007812 205.980469 C 153.785156 206.605469 153.625 207.246094 153.527344 207.902344 C 153.429688 208.558594 153.398438 209.21875 153.429688 209.878906 C 153.460938 210.542969 153.558594 211.195312 153.722656 211.839844 C 153.882812 212.484375 154.109375 213.105469 154.394531 213.703125 C 154.675781 214.304688 155.019531 214.871094 155.414062 215.402344 C 155.8125 215.933594 156.257812 216.421875 156.75 216.867188 C 157.242188 217.3125 157.773438 217.703125 158.34375 218.042969 C 158.914062 218.382812 159.511719 218.664062 160.140625 218.886719 Z M 160.140625 218.886719 " fill-opacity="1" fill-rule="nonzero"/></g></svg>